<svg width="50" height="24" viewBox="0 0 50 24" fill="none" xmlns="http://www.w3.org/2000/svg">
<path d="M1.56002 19.2237C1.33647 18.8771 1.0384 18.3234 0.854304 17.9134C-0.219608 15.5125 -0.267824 13.0271 0.635138 10.6432C1.63015 8.02677 3.53251 6.02747 5.99154 5.00458C9.08178 3.72385 12.4964 3.97323 15.4595 5.66819C17.3399 6.708 18.6725 8.3142 19.685 10.5882C19.8121 10.8799 19.9261 11.1884 20.0401 11.4547L1.56002 19.2237ZM7.73172 8.86369C5.53568 9.77246 4.40479 11.7591 4.64149 14.0838L13.9341 10.2247C12.3342 8.41564 10.2565 7.81543 7.73172 8.86369ZM15.0913 17.2582C15.0869 17.2582 15.0869 17.2624 15.0869 17.2624L14.894 17.1356C14.3374 18.0021 13.4739 18.708 12.3824 19.1645C10.3047 20.0352 8.38045 19.8112 6.99532 18.6404L6.86821 18.8263C6.86821 18.8263 6.86821 18.8221 6.86382 18.8221L4.5056 22.2247C5.09296 22.6178 5.71978 22.9475 6.37728 23.2138C8.98096 24.2578 11.646 24.2071 14.2716 23.1081C16.1696 22.3135 17.6599 21.1046 18.6769 19.5703L15.0913 17.2582ZM26.4967 0V18.9109L29.5475 20.1029L27.8161 24L24.4497 22.6474C23.6957 22.3304 23.1785 21.8485 22.7928 21.3033C22.4202 20.7496 22.144 19.9845 22.144 18.9616V0H26.4967ZM34.3954 14.0965C34.3954 12.4861 35.1362 11.0405 36.3021 10.0599L33.1725 6.69532C31.0509 8.5044 29.714 11.1462 29.714 14.0881C29.7097 17.0342 31.0466 19.6802 33.1637 21.4893L36.289 18.1247C35.1274 17.1398 34.3954 15.7027 34.3954 14.0965ZM39.9534 19.4604C39.3398 19.4604 38.7437 19.3589 38.1914 19.1814L36.6966 23.4632C37.718 23.7929 38.8094 23.9746 39.9491 23.9746C44.9022 23.9789 49.0357 20.5889 49.9956 16.0874L45.4019 15.1828C44.8803 17.6302 42.6404 19.4646 39.9534 19.4604ZM39.9666 4.21839C38.8313 4.21839 37.7399 4.39592 36.7186 4.72138L38.2001 9.0074C38.7568 8.82987 39.3485 8.73265 39.9622 8.73265C42.6536 8.73688 44.8978 10.5798 45.4063 13.0313L50 12.1353C49.0576 7.62522 44.9241 4.22261 39.9666 4.21839Z" fill="white"/>
</svg>
