<svg width="45" height="28" viewBox="0 0 45 28" fill="none" xmlns="http://www.w3.org/2000/svg">
<path d="M28.5838 24.8403H16.416V2.97302H28.5841L28.5838 24.8403Z" fill="#FF5F00"/>
<path d="M17.1879 13.9071C17.1879 9.47133 19.2648 5.51993 22.499 2.97347C20.0509 1.04309 17.0229 -0.00459139 13.9053 1.51259e-05C6.22542 1.51259e-05 0 6.22634 0 13.9071C0 21.5879 6.22542 27.8142 13.9053 27.8142C17.023 27.8188 20.051 26.7712 22.4992 24.8407C19.2652 22.2947 17.1879 18.3431 17.1879 13.9071Z" fill="#EB001B"/>
<path d="M44.9999 13.9072C44.9999 21.588 38.7744 27.8143 31.0946 27.8143C27.9765 27.8189 24.9482 26.7712 22.4995 24.8409C25.7346 22.2944 27.8115 18.3432 27.8115 13.9072C27.8115 9.47123 25.7346 5.52005 22.4995 2.97359C24.9481 1.04327 27.9764 -0.00438857 31.0943 0.000136669C38.7742 0.000136669 44.9996 6.22646 44.9996 13.9072" fill="#F79E1B"/>
</svg>
